<svg xmlns="http://www.w3.org/2000/svg" viewBox="0 0 1200 900" role="img" aria-label="Figure 8 placeholder: Bandwidth comparison bar chart">
  <defs>
    <linearGradient id="bg8" x1="0" y1="0" x2="1" y2="1">
      <stop offset="0%" stop-color="#ffd9e6"/>
      <stop offset="50%" stop-color="#e0d4ff"/>
      <stop offset="100%" stop-color="#c6f5e3"/>
    </linearGradient>
    <filter id="blur8"><feGaussianBlur stdDeviation="10"/></filter>
  </defs>
  <rect width="1200" height="900" fill="url(#bg8)"/>
  <g opacity="0.25" filter="url(#blur8)">
    <circle cx="150" cy="150" r="180" fill="#06b6d4"/>
    <circle cx="1050" cy="750" r="180" fill="#ec4899"/>
  </g>
  <rect x="80" y="80" width="1040" height="720" rx="24" fill="rgba(255,255,255,0.55)" stroke="rgba(255,255,255,0.85)"/>
  <text x="600" y="130" text-anchor="middle" font-family="system-ui, sans-serif" font-weight="700" font-size="22" fill="#0f172a">Interconnect Bandwidth Benchmarks (TB/s)</text>
  <line x1="160" y1="680" x2="1060" y2="680" stroke="#334155" stroke-width="2"/>
  <line x1="160" y1="180" x2="160" y2="680" stroke="#334155" stroke-width="2"/>
  <g font-family="system-ui, sans-serif" font-size="13" fill="#475569" text-anchor="end">
    <text x="150" y="685">0</text>
    <text x="150" y="605">10</text>
    <text x="150" y="525">20</text>
    <text x="150" y="445">40</text>
    <text x="150" y="365">60</text>
    <text x="150" y="285">70</text>
  </g>
  <g>
    <rect x="220" y="670" width="120" height="10" fill="#06b6d4" rx="4" opacity="0.85"/>
    <text x="280" y="720" text-anchor="middle" font-family="system-ui, sans-serif" font-weight="600" font-size="14" fill="#0f172a">0.094</text>
    <text x="280" y="745" text-anchor="middle" font-family="system-ui, sans-serif" font-size="13" fill="#475569">Intel Core X</text>
  </g>
  <g>
    <rect x="400" y="617" width="120" height="63" fill="#10b981" rx="4" opacity="0.85"/>
    <text x="460" y="720" text-anchor="middle" font-family="system-ui, sans-serif" font-weight="600" font-size="14" fill="#0f172a">8.0</text>
    <text x="460" y="745" text-anchor="middle" font-family="system-ui, sans-serif" font-size="13" fill="#475569">Blackwell per core</text>
  </g>
  <g>
    <rect x="580" y="168" width="120" height="512" fill="#f59e0b" rx="4" opacity="0.9"/>
    <text x="640" y="720" text-anchor="middle" font-family="system-ui, sans-serif" font-weight="600" font-size="14" fill="#0f172a">64.0</text>
    <text x="640" y="745" text-anchor="middle" font-family="system-ui, sans-serif" font-size="13" fill="#475569">Blackwell 8-core</text>
  </g>
  <g>
    <rect x="760" y="680" width="120" height="36" transform="translate(0 -36)" fill="#ec4899" rx="4" opacity="0.85"/>
    <text x="820" y="720" text-anchor="middle" font-family="system-ui, sans-serif" font-weight="600" font-size="14" fill="#0f172a">0.4</text>
    <text x="820" y="745" text-anchor="middle" font-family="system-ui, sans-serif" font-size="13" fill="#475569">photonic 3.2 Tbps</text>
  </g>
  <g>
    <rect x="940" y="642" width="120" height="38" fill="#8b5cf6" rx="4" opacity="0.85"/>
    <text x="1000" y="720" text-anchor="middle" font-family="system-ui, sans-serif" font-weight="600" font-size="14" fill="#0f172a">1.6</text>
    <text x="1000" y="745" text-anchor="middle" font-family="system-ui, sans-serif" font-size="13" fill="#475569">transceiver target</text>
  </g>
  <rect x="400" y="810" width="400" height="70" rx="18" fill="rgba(255,255,255,0.85)"/>
  <text x="600" y="840" text-anchor="middle" font-family="system-ui, sans-serif" font-weight="700" font-size="20" fill="#0f172a">Figure 8</text>
  <text x="600" y="865" text-anchor="middle" font-family="system-ui, sans-serif" font-size="14" fill="#1e293b">Bandwidth comparison: memory vs interconnect</text>
</svg>
