<svg xmlns="http://www.w3.org/2000/svg" viewBox="0 0 1600 900" role="img" aria-label="Figure 7 placeholder: Silicon photonic chip on wafer">
  <defs>
    <radialGradient id="wafer7" cx="0.5" cy="0.5" r="0.55">
      <stop offset="0%" stop-color="#f5e0ff"/>
      <stop offset="60%" stop-color="#d4b3ff"/>
      <stop offset="100%" stop-color="#8b5cf6"/>
    </radialGradient>
    <linearGradient id="bg7" x1="0" y1="0" x2="1" y2="1">
      <stop offset="0%" stop-color="#ffd9e6"/>
      <stop offset="50%" stop-color="#e0d4ff"/>
      <stop offset="100%" stop-color="#c6f5e3"/>
    </linearGradient>
    <filter id="blur7"><feGaussianBlur stdDeviation="12"/></filter>
  </defs>
  <rect width="1600" height="900" fill="url(#bg7)"/>
  <g opacity="0.25" filter="url(#blur7)">
    <circle cx="250" cy="700" r="180" fill="#f59e0b"/>
    <circle cx="1350" cy="200" r="200" fill="#10b981"/>
  </g>
  <circle cx="560" cy="450" r="340" fill="url(#wafer7)" stroke="#6d28d9" stroke-width="3" opacity="0.9"/>
  <circle cx="560" cy="450" r="340" fill="none" stroke="rgba(255,255,255,0.6)" stroke-width="2" stroke-dasharray="8,8"/>
  <g opacity="0.55">
    <rect x="440" y="330" width="60" height="60" fill="#0f172a" rx="4"/>
    <rect x="520" y="330" width="60" height="60" fill="#0f172a" rx="4"/>
    <rect x="600" y="330" width="60" height="60" fill="#0f172a" rx="4"/>
    <rect x="440" y="410" width="60" height="60" fill="#0f172a" rx="4"/>
    <rect x="520" y="410" width="60" height="60" fill="#0f172a" rx="4"/>
    <rect x="600" y="410" width="60" height="60" fill="#0f172a" rx="4"/>
    <rect x="440" y="490" width="60" height="60" fill="#0f172a" rx="4"/>
    <rect x="520" y="490" width="60" height="60" fill="#0f172a" rx="4"/>
    <rect x="600" y="490" width="60" height="60" fill="#0f172a" rx="4"/>
  </g>
  <circle cx="1180" cy="450" r="260" fill="rgba(255,255,255,0.55)" stroke="rgba(255,255,255,0.9)" stroke-width="4"/>
  <line x1="895" y1="430" x2="920" y2="430" stroke="rgba(15,23,42,0.5)" stroke-width="2"/>
  <g stroke-width="4" fill="none" opacity="0.9">
    <path d="M 1020 360 Q 1180 390 1340 360" stroke="#06b6d4"/>
    <path d="M 1020 420 Q 1180 450 1340 420" stroke="#ec4899"/>
    <path d="M 1020 480 Q 1180 510 1340 480" stroke="#10b981"/>
    <path d="M 1020 540 Q 1180 570 1340 540" stroke="#f59e0b"/>
  </g>
  <g fill="#334155">
    <rect x="1020" y="340" width="10" height="10"/>
    <rect x="1020" y="400" width="10" height="10"/>
    <rect x="1020" y="460" width="10" height="10"/>
    <rect x="1020" y="520" width="10" height="10"/>
    <rect x="1330" y="340" width="10" height="10"/>
    <rect x="1330" y="400" width="10" height="10"/>
    <rect x="1330" y="460" width="10" height="10"/>
    <rect x="1330" y="520" width="10" height="10"/>
  </g>
  <rect x="80" y="100" width="360" height="80" rx="14" fill="rgba(255,255,255,0.85)"/>
  <text x="260" y="132" text-anchor="middle" font-family="system-ui, sans-serif" font-weight="700" font-size="18" fill="#0f172a">300 mm SOI wafer</text>
  <text x="260" y="158" text-anchor="middle" font-family="system-ui, sans-serif" font-size="14" fill="#475569">silicon-on-insulator photonics</text>
  <rect x="1020" y="100" width="420" height="80" rx="14" fill="rgba(255,255,255,0.85)"/>
  <text x="1230" y="132" text-anchor="middle" font-family="system-ui, sans-serif" font-weight="700" font-size="18" fill="#0f172a">Die magnification</text>
  <text x="1230" y="158" text-anchor="middle" font-family="system-ui, sans-serif" font-size="14" fill="#475569">waveguides, grating couplers, test pads</text>
  <rect x="600" y="790" width="400" height="80" rx="18" fill="rgba(255,255,255,0.85)"/>
  <text x="800" y="825" text-anchor="middle" font-family="system-ui, sans-serif" font-weight="700" font-size="20" fill="#0f172a">Figure 7</text>
  <text x="800" y="852" text-anchor="middle" font-family="system-ui, sans-serif" font-size="14" fill="#1e293b">Silicon photonic chip on a wafer</text>
</svg>
