<svg xmlns="http://www.w3.org/2000/svg" viewBox="0 0 1200 900" role="img" aria-label="Figure 5 placeholder: Binary vs frequency-bin multi-level encoding">
  <defs>
    <linearGradient id="bg5" x1="0" y1="0" x2="1" y2="1">
      <stop offset="0%" stop-color="#ffd9e6"/>
      <stop offset="50%" stop-color="#e0d4ff"/>
      <stop offset="100%" stop-color="#c6f5e3"/>
    </linearGradient>
    <filter id="blur5"><feGaussianBlur stdDeviation="10"/></filter>
  </defs>
  <rect width="1200" height="900" fill="url(#bg5)"/>
  <g opacity="0.28" filter="url(#blur5)">
    <circle cx="300" cy="700" r="180" fill="#f59e0b"/>
    <circle cx="900" cy="300" r="200" fill="#ec4899"/>
  </g>
  <rect x="60" y="140" width="500" height="600" rx="24" fill="rgba(255,255,255,0.55)" stroke="rgba(255,255,255,0.85)" stroke-width="2"/>
  <text x="310" y="200" text-anchor="middle" font-family="system-ui, sans-serif" font-weight="700" font-size="26" fill="#0f172a">Binary</text>
  <text x="310" y="230" text-anchor="middle" font-family="system-ui, sans-serif" font-size="15" fill="#475569">2 states per symbol</text>
  <g stroke="#334155" stroke-width="4" fill="none">
    <path d="M 110 560 L 150 560 L 150 350 L 230 350 L 230 560 L 310 560 L 310 350 L 390 350 L 390 560 L 470 560 L 470 350 L 510 350"/>
  </g>
  <line x1="110" y1="350" x2="510" y2="350" stroke="#f59e0b" stroke-width="1" stroke-dasharray="4,4"/>
  <line x1="110" y1="560" x2="510" y2="560" stroke="#f59e0b" stroke-width="1" stroke-dasharray="4,4"/>
  <text x="80" y="355" text-anchor="end" font-family="system-ui, sans-serif" font-size="14" fill="#475569">1</text>
  <text x="80" y="565" text-anchor="end" font-family="system-ui, sans-serif" font-size="14" fill="#475569">0</text>
  <rect x="120" y="640" width="380" height="60" rx="10" fill="rgba(255,255,255,0.8)"/>
  <text x="310" y="670" text-anchor="middle" font-family="system-ui, sans-serif" font-weight="600" font-size="14" fill="#0f172a">1 bit per signal</text>
  <text x="310" y="690" text-anchor="middle" font-family="system-ui, sans-serif" font-size="13" fill="#475569">one voltage transition per symbol</text>
  <rect x="640" y="140" width="500" height="600" rx="24" fill="rgba(255,255,255,0.55)" stroke="rgba(255,255,255,0.85)" stroke-width="2"/>
  <text x="890" y="200" text-anchor="middle" font-family="system-ui, sans-serif" font-weight="700" font-size="26" fill="#0f172a">Frequency-bin</text>
  <text x="890" y="230" text-anchor="middle" font-family="system-ui, sans-serif" font-size="15" fill="#475569">N states per symbol, up to 50+ bins</text>
  <line x1="680" y1="580" x2="1100" y2="580" stroke="#334155" stroke-width="2"/>
  <g>
    <rect x="700" y="450" width="32" height="130" fill="#ef4444" opacity="0.85"/>
    <rect x="740" y="400" width="32" height="180" fill="#f97316" opacity="0.85"/>
    <rect x="780" y="380" width="32" height="200" fill="#f59e0b" opacity="0.85"/>
    <rect x="820" y="360" width="32" height="220" fill="#eab308" opacity="0.85"/>
    <rect x="860" y="340" width="32" height="240" fill="#84cc16" opacity="0.85"/>
    <rect x="900" y="320" width="32" height="260" fill="#10b981" opacity="0.85"/>
    <rect x="940" y="300" width="32" height="280" fill="#06b6d4" opacity="0.85"/>
    <rect x="980" y="310" width="32" height="270" fill="#6366f1" opacity="0.85"/>
    <rect x="1020" y="350" width="32" height="230" fill="#a855f7" opacity="0.85"/>
    <rect x="1060" y="420" width="32" height="160" fill="#ec4899" opacity="0.85"/>
  </g>
  <text x="890" y="605" text-anchor="middle" font-family="system-ui, sans-serif" font-size="14" fill="#475569">frequency -&gt;</text>
  <rect x="700" y="640" width="380" height="60" rx="10" fill="rgba(255,255,255,0.8)"/>
  <text x="890" y="670" text-anchor="middle" font-family="system-ui, sans-serif" font-weight="600" font-size="14" fill="#0f172a">3+ bits per photon stream</text>
  <text x="890" y="690" text-anchor="middle" font-family="system-ui, sans-serif" font-size="13" fill="#475569">50 GHz bin spacing achievable</text>
  <rect x="400" y="800" width="400" height="70" rx="18" fill="rgba(255,255,255,0.85)"/>
  <text x="600" y="830" text-anchor="middle" font-family="system-ui, sans-serif" font-weight="700" font-size="20" fill="#0f172a">Figure 5</text>
  <text x="600" y="855" text-anchor="middle" font-family="system-ui, sans-serif" font-size="14" fill="#1e293b">Binary vs frequency-bin encoding</text>
</svg>
